<?xml version="1.0" encoding="UTF-8"?>
<!DOCTYPE svg PUBLIC "-//W3C//DTD SVG 1.1//EN" "http://www.w3.org/Graphics/SVG/1.1/DTD/svg11.dtd">
<!-- Creator: CorelDRAW 2021 (64 Bit Versão de avaliação) -->
<svg xmlns="http://www.w3.org/2000/svg" xml:space="preserve" width="210mm" height="162.56mm" version="1.1" style="shape-rendering:geometricPrecision; text-rendering:geometricPrecision; image-rendering:optimizeQuality; fill-rule:evenodd; clip-rule:evenodd"
viewBox="0 0 21000 16255.98"
 xmlns:xlink="http://www.w3.org/1999/xlink"
 xmlns:xodm="http://www.corel.com/coreldraw/odm/2003">
 <defs>
  <style type="text/css">
   <![CDATA[
    .fil0 {fill:#4CB752;fill-rule:nonzero}
    .fil1 {fill:#395487;fill-rule:nonzero}
   ]]>
  </style>
 </defs>
 <g id="Camada_x0020_1">
  <metadata id="CorelCorpID_0Corel-Layer"/>
  <path class="fil0" d="M17016.13 4861.14c144.2,297.13 222.82,613.83 235.94,950.17l-609.45 0c-8.66,-270.86 -50.15,-532.96 -124.46,-786.34 170.36,-48.04 336.41,-102.64 497.97,-163.83z"/>
  <path class="fil0" d="M17016.13 6912.16c-161.56,-61.09 -327.61,-117.97 -497.97,-170.39 74.31,-248.99 115.8,-508.82 124.46,-779.78l609.45 0c-13.12,336.44 -91.74,650.97 -235.94,943.61l0 6.56z"/>
  <path class="fil0" d="M16092.21 4173.09c83.05,-43.63 163.84,-87.33 242.43,-131.02 249.05,192.28 449.99,415.03 602.89,668.37 -152.9,65.54 -307.97,120.17 -465.25,163.81 -96.05,-266.46 -222.79,-500.16 -380.07,-701.16z"/>
  <path class="fil0" d="M16092.21 7600.26c157.28,-205.35 284.02,-439.12 380.07,-701.22 157.28,43.76 312.35,96.15 465.25,157.28 -152.9,257.85 -353.84,482.79 -602.89,674.93 -78.59,-48.05 -159.38,-91.74 -242.43,-130.99z"/>
  <path class="fil0" d="M15993.93 4035.5c-113.59,-131.09 -231.53,-249.06 -353.88,-353.88 192.28,61.24 373.51,146.41 543.87,255.58 -52.43,26.2 -115.69,58.95 -189.99,98.3z"/>
  <path class="fil0" d="M15993.93 7737.8c74.3,39.34 137.56,72.16 189.99,98.3 -170.36,109.27 -351.59,192.31 -543.87,249.02 122.35,-100.4 240.29,-216.24 353.88,-347.32z"/>
  <g id="_2714210023936">
   <path class="fil1" d="M15810.42 5811.29c0,-205.28 -15.22,-414.99 -45.87,-629.05 205.4,-30.54 404.16,-67.68 596.34,-111.41 74.31,240.32 113.62,487.13 117.97,740.46l-668.44 0z"/>
   <path class="fil1" d="M15764.56 6591.07c30.62,-218.38 45.87,-428.05 45.87,-629.06l668.4 0c-4.31,253.44 -43.62,500.25 -117.94,740.47 -192.21,-43.59 -390.94,-80.8 -596.33,-111.41z"/>
   <path class="fil1" d="M15941.51 4238.63c157.28,205.39 279.63,428.15 366.95,668.36 -179.06,43.77 -369.13,78.66 -570.07,104.86 -34.93,-231.49 -89.53,-449.89 -163.84,-655.25 126.73,-26.23 248.99,-65.54 366.96,-117.97z"/>
   <path class="fil1" d="M16308.46 6859.74c-87.32,244.7 -209.67,469.67 -366.95,674.92 -117.97,-52.36 -240.23,-91.71 -366.96,-117.97 74.31,-205.21 128.91,-425.87 163.84,-661.8 200.94,26.23 391.01,61.25 570.07,104.85z"/>
   <path class="fil1" d="M15830.1 4107.54c-100.47,35.03 -205.29,67.83 -314.53,98.3 -78.66,-213.99 -174.67,-417.11 -288.36,-609.41 222.82,126.76 423.83,297.12 602.89,511.11z"/>
   <path class="fil1" d="M15515.56 7567.46c109.24,26.24 214.1,58.92 314.53,98.3 -179.06,209.68 -380.07,380 -602.86,511.09 113.66,-196.56 209.68,-399.71 288.33,-609.39z"/>
   <path class="fil1" d="M15024.09 5811.29l0 -583.21c187.89,0 380.07,-10.84 576.63,-32.73 26.26,205.37 41.59,410.66 45.86,615.94l-622.49 0z"/>
   <path class="fil1" d="M15024.09 6545.21l0 -583.23 622.49 0c-4.27,205.43 -19.6,410.72 -45.86,616.01 -196.56,-21.85 -388.74,-32.78 -576.63,-32.78z"/>
   <path class="fil1" d="M15574.55 5038.08c-157.28,17.49 -340.76,26.19 -550.46,26.19l0 -635.64c131.08,-4.28 259.98,-17.4 386.62,-39.28 69.95,205.4 124.49,421.63 163.84,648.73z"/>
   <path class="fil1" d="M15024.09 6702.48c209.67,0 393.19,10.93 550.47,32.78 -39.35,227.2 -93.92,443.4 -163.85,648.77 -126.63,-26.23 -255.53,-39.38 -386.62,-39.38l0 -642.17z"/>
   <path class="fil1" d="M15024.09 4271.37l0 -688.03c131.09,196.55 238.15,415.06 321.08,655.28 -104.82,17.53 -211.84,28.47 -321.08,32.75z"/>
   <path class="fil1" d="M15024.09 7501.98c109.24,4.34 216.26,15.32 321.08,32.68 -82.93,240.4 -189.99,458.73 -321.08,655.33l0 -688.01z"/>
   <path class="fil1" d="M14866.83 4271.37c-109.14,-4.28 -218.38,-15.22 -327.66,-32.75 91.78,-240.22 201.02,-458.73 327.66,-655.28l0 688.03z"/>
   <path class="fil1" d="M14866.83 5064.26c-209.69,0 -393.16,-8.66 -550.41,-26.2 34.97,-227.06 89.57,-443.33 163.77,-648.73 122.35,21.89 251.27,35.01 386.64,39.32l0 635.61z"/>
   <path class="fil1" d="M14866.83 5228.09l0 583.22 -622.5 0c0,-205.32 15.32,-410.61 45.86,-615.98 192.28,21.93 384.46,32.76 576.64,32.76z"/>
   <path class="fil1" d="M14866.83 5962l0 583.22c-192.18,0 -384.36,10.94 -576.64,32.79 -30.54,-205.29 -45.86,-410.61 -45.86,-616.01l622.5 0z"/>
   <path class="fil1" d="M14316.41 6735.27c157.28,-21.85 340.73,-32.79 550.41,-32.79l0 642.17c-135.37,0 -264.28,13.12 -386.63,39.35 -74.21,-205.33 -128.81,-421.53 -163.78,-648.73z"/>
   <path class="fil1" d="M14866.83 7501.98l0 688.01c-126.64,-196.6 -235.88,-414.93 -327.66,-655.33 109.28,-17.36 218.52,-28.34 327.66,-32.68z"/>
   <path class="fil1" d="M14368.83 4205.83c-104.85,-30.48 -209.67,-63.27 -314.52,-98.3 179.16,-213.95 382.27,-384.35 609.38,-511.08 -113.59,192.27 -211.84,395.39 -294.86,609.38z"/>
   <path class="fil1" d="M14054.3 7665.75c104.86,-39.35 209.68,-72.03 314.53,-98.3 83.01,209.71 181.3,412.83 294.86,609.42 -227.11,-131.08 -430.22,-301.44 -609.39,-511.12z"/>
   <path class="fil1" d="M13582.45 4907c87.5,-240.22 209.67,-462.98 367.02,-668.37 117.94,52.43 240.26,91.74 366.96,117.97 -69.89,205.36 -124.49,423.76 -163.84,655.25 -196.55,-26.19 -386.7,-61.09 -570.14,-104.85z"/>
   <path class="fil1" d="M13949.46 7534.66c-157.32,-205.24 -279.53,-430.21 -367.03,-674.91 183.48,-43.6 373.59,-78.63 570.15,-104.86 39.38,235.94 93.94,456.56 163.83,661.8 -126.69,26.24 -248.98,65.62 -366.95,117.97z"/>
   <path class="fil1" d="M13896.98 4035.5c-74.17,-39.35 -135.32,-72.1 -183.44,-98.3 170.32,-109.17 349.56,-194.34 537.31,-255.58 -122.28,104.82 -240.25,222.79 -353.87,353.88z"/>
   <path class="fil1" d="M13896.98 7737.8c113.62,131.08 231.59,246.92 353.87,347.32 -187.75,-56.71 -366.99,-139.75 -537.31,-249.02 48.12,-26.14 109.27,-58.96 183.44,-98.3z"/>
   <path class="fil1" d="M14126.35 5182.23c-34.93,214.09 -52.35,423.77 -52.35,629.05l-661.89 0c4.35,-253.33 43.7,-500.14 117.97,-740.46 192.25,43.76 391.02,80.9 596.27,111.41z"/>
   <path class="fil1" d="M14073.99 5962c0,201.01 17.46,410.72 52.35,629.05 -205.22,30.65 -404.02,67.82 -596.27,111.42 -74.27,-240.22 -113.62,-487.04 -117.97,-740.47l661.89 0z"/>
   <path class="fil1" d="M13792.14 4173.09c-152.87,201 -277.28,434.7 -373.47,701.16 -157.32,-43.64 -312.3,-98.27 -465.29,-163.81 152.99,-253.34 356.11,-476.09 609.38,-668.37 74.37,43.69 150.75,87.39 229.38,131.02z"/>
   <path class="fil1" d="M13792.14 7600.26c-78.63,39.25 -155.01,82.94 -229.38,130.99 -253.27,-192.14 -456.39,-417.08 -609.38,-674.93 152.99,-61.13 307.97,-113.52 465.29,-157.28 96.19,262.1 220.6,495.87 373.47,701.22z"/>
   <path class="fil1" d="M12881.33 4861.14c157.23,61.19 321.09,115.79 491.42,163.83 -74.14,253.38 -115.62,515.48 -124.52,786.34l-609.39 0c8.8,-336.34 87.49,-653.04 235.94,-950.17l6.55 0z"/>
   <path class="fil1" d="M12874.78 6905.6c-148.45,-292.64 -227.14,-607.17 -235.94,-943.62l609.42 0c8.87,270.97 50.35,530.8 124.49,779.78 -170.33,52.43 -334.2,109.31 -491.42,170.4l-6.55 -6.56z"/>
  </g>
 </g>
</svg>
